AtomicTorrents.net Download

[code]
                          oooo$$$$$$$$$$$$oooo
                      oo$$$$$$$$$$$$$$$$$$$$$$$$o
                   oo$$$$$$$$$$$$$$$$$$$$$$$$$$$$$$o         o$   $$ o$
   o $ oo        o$$$$$$$$$$$$$$$$$$$$$$$$$$$$$$$$$$$$o       $$ $$ $$o$
oo $ $ "$      o$$$$$$$$$    $$$$$$$$$$$$$    $$$$$$$$$o       $$$o$$o$
"$$$$$$o$     o$$$$$$$$$      $$$$$$$$$$$      $$$$$$$$$$o    $$$$$$$$
  $$$$$$$    $$$$$$$$$$$      $$$$$$$$$$$      $$$$$$$$$$$$$$$$$$$$$$$
  $$$$$$$$$$$$$$$$$$$$$$$    $$$$$$$$$$$$$    $$$$$$$$$$$$$$  """$$$
      "$$$
    $$$   o$$$$$$$$$$$$$$$$$$$$$$$$$$$$$$$$$$$$$$$$$$$$$$$$$$     "$$$o
   o$$"   $$$$$$$$$$$$$$$$$$$$$$$$$$$$$$$$$$$$$$$$$$$$$$$$$$$       $$$o
   $$$    $$$$$$$$$$$$$$$$$$$$$$$$$$$$$$$$$$$$$$$$$$$$$" "$$$$$$ooooo$$$$o
  o$$$oooo$$$$$  $$$$$$$$$$$$$$$$$$$$$$$$$$$$$$$$$$$$$   o$$$$$$$$$$$$$$$$$
  $$$$$$$$"$$$$   $$$$$$$$$$$$$$$$$$$$$$$$$$$$$$$$$$    
      $$$$    "$$$$$$$$$$$$$$$$$$$$$$$$$$$$"      o$$$
            "$$$o     """$$$$$$$$$$$$$$$$$$"$$"         $$$
              $$$o                   o$$$
               $$$$o                                o$$$"
                "$$$$o      o$$$$$$o"$$$$o        o$$$$
                  "$$$$$oo     ""$$$$o$$$$$o   o$$$$""
                     ""$$$$$oooo  "$$$o$$$$$$$$$"""
                        ""$$$$$$$oo $$$$$$$$$$
                               
                                    $$$$$$$$$$$$
                                     $$$$$$$$$$"

                                                    .:::.
            ....                                    :::::
          ,;' .;:                ::  ..:            `:::'
          ::.      ..:,:;.,:;.    .   ::   .::::.    `:'
           '''::,   ::  ::  ::  `::   ::  ;:   .::    :
         ,:';  ::;  ::  ::  ::   ::   ::  ::,::''.    .
         `:,,,,;;' ,;; ,;;, ;;, ,;;, ,;;, `:,,,,:'   :;:

          Another Fine Release Brought to you from - SMiL3


*************************************************************************
              Predators.2010.TS.LiNE.CAM.XviD-SMiL3
*************************************************************************
[/code]
[b]
[color=yellow]Info[/color]

Ripper ...........: SMiL3
Video Codec.......: XVID
Release Date......: 2010
Audio Codec.......: AC3
Runtime...........: 1h 41mn
Subtitles.........: None
Language..........: ENGLISH
Resolution........: 640*256

[color=yellow]Video[/color]
ID                               : 0
Format                           : MPEG-4 Visual
Format profile                   : Advanced Simple@L5
Format settings, BVOP            : Yes
Format settings, QPel            : No
Format settings, GMC             : No warppoints
Format settings, Matrix          : Default (H.263)
Muxing mode                      : Packed bitstream
Codec ID                         : XVID
Codec ID/Hint                    : XviD
Duration                         : 1h 41mn
Bit rate                         : 562 Kbps
Width                            : 640 pixels
Height                           : 256 pixels
Display aspect ratio             : 2.500
Frame rate                       : 29.970 fps
Color space                      : YUV
Chroma subsampling               : 4:2:0
Bit depth                        : 8 bits
Scan type                        : Progressive
Bits/(Pixel*Frame)               : 0.115
Stream size                      : 407 MiB (74%)
Writing library                  : XviD 1.2.1 (UTC 2008-12-04)

[color=yellow]Audio[/color]
ID                               : 1
Format                           : AC-3
Format/Info                      : Audio Coding 3
Mode extension                   : CM (complete main)
Codec ID                         : 2000
Duration                         : 1h 41mn
Bit rate mode                    : Constant
Bit rate                         : 192 Kbps
Channel(s)                       : 2 channels
Channel positions                : Front: L R
Sampling rate                    : 48.0 KHz
Stream size                      : 139 MiB (25%)
Alignment                        : Aligned on interleaves
Interleave, duration             : 64 ms (1.92 video frames)
Interleave, preload duration     : 192 ms
Title                            : VTS_01_1 T01 2_0ch 192Kbps DELAY 0ms

[color=yellow]Screens[/color]


[color=yellow]Ripper note[/color]

Don't want it? Don't download it.

[color=red]Have something we can use? CAM's, SCR's, Suppliers, DVD or BluRay? --> smil3rg[at]hushmail.com[/color]

[color=yellow]*ANOTHER SMiL3 RELEASE[/color]
[/b]